<?xml version="1.0" standalone="no"?>
<!DOCTYPE svg PUBLIC "-//W3C//DTD SVG 20010904//EN"
 "http://www.w3.org/TR/2001/REC-SVG-20010904/DTD/svg10.dtd">
<svg version="1.0" xmlns="http://www.w3.org/2000/svg"
 width="512.000000pt" height="512.000000pt" viewBox="0 0 512.000000 512.000000"
 preserveAspectRatio="xMidYMid meet">
<metadata>
Created by potrace 1.14, written by Peter Selinger 2001-2017
</metadata>
<g transform="translate(0.000000,512.000000) scale(0.100000,-0.100000)"
fill="#000000" stroke="none">
<path d="M1448 4615 c-2 -1 -41 -6 -88 -9 -154 -12 -320 -63 -435 -135 -46
-29 -156 -119 -168 -138 -4 -7 -18 -23 -31 -36 -13 -12 -33 -38 -46 -57 -13
-19 -27 -37 -30 -40 -13 -12 -60 -110 -53 -110 4 0 3 -4 -2 -8 -17 -12 -60
-153 -71 -232 -2 -14 -6 -38 -9 -55 -3 -16 -7 -94 -9 -173 -2 -79 -6 -146 -9
-148 -3 -3 -1 -18 3 -34 4 -16 6 -31 3 -34 -8 -8 -6 -1382 1 -1395 4 -6 3 -11
-3 -11 -6 0 -8 -6 -5 -13 8 -23 9 -127 1 -127 -5 0 -5 -5 -1 -12 9 -14 9 -82
0 -96 -4 -7 -3 -12 2 -12 10 0 9 -30 -2 -48 -4 -6 -3 -12 3 -12 6 0 6 -11 1
-30 -5 -16 -6 -30 -2 -30 10 0 7 -133 -3 -150 -5 -9 -4 -11 3 -6 8 5 12 -2 12
-19 0 -18 -4 -24 -13 -19 -8 5 -8 3 2 -9 7 -9 11 -26 8 -37 -3 -11 -2 -22 3
-25 4 -3 7 -23 6 -45 -1 -22 1 -40 5 -40 3 0 7 -11 8 -25 1 -14 2 -36 3 -50 1
-14 6 -25 10 -25 4 0 8 -13 8 -30 0 -16 5 -30 11 -30 5 0 8 -4 4 -9 -3 -5 -1
-12 4 -16 6 -3 8 -12 4 -20 -3 -8 0 -15 6 -15 6 0 11 -8 11 -19 0 -10 7 -24
16 -32 8 -7 13 -21 11 -31 -3 -10 -1 -16 3 -13 5 3 14 -8 22 -25 7 -16 16 -30
20 -30 5 0 8 -6 8 -14 0 -8 7 -16 15 -20 8 -3 15 -12 15 -21 0 -8 5 -15 11
-15 5 0 7 -5 4 -10 -3 -6 1 -10 10 -10 10 0 15 -7 13 -17 -2 -12 3 -17 15 -15
16 3 21 -8 18 -36 -1 -6 3 -12 9 -12 6 0 8 4 5 10 -11 17 4 11 32 -15 16 -13
39 -34 53 -46 18 -14 20 -19 7 -15 -11 4 -16 2 -12 -5 4 -5 14 -7 23 -5 10 3
37 -7 61 -24 25 -16 48 -27 53 -24 4 3 8 1 8 -5 0 -5 -6 -11 -12 -14 -7 -3 -3
-4 9 -4 12 1 19 5 17 9 -3 4 2 5 11 2 10 -4 15 -14 12 -24 -2 -9 1 -17 8 -17
8 0 11 7 7 16 -5 13 -3 14 10 4 8 -7 19 -9 23 -5 5 4 6 0 3 -8 -4 -12 3 -15
33 -14 22 1 39 -2 39 -7 0 -5 14 -9 30 -9 17 0 30 -5 30 -11 0 -8 5 -8 15 1
12 10 15 9 16 -6 0 -11 3 -14 6 -6 7 19 23 14 17 -5 -5 -16 -4 -16 5 -2 8 12
20 15 53 10 24 -4 52 -6 63 -6 11 0 27 -7 35 -15 8 -9 12 -11 8 -6 -12 15 -9
28 4 20 17 -10 68 -13 68 -4 0 5 12 5 28 1 15 -4 33 -6 41 -3 10 3 11 0 5 -9
-6 -11 -5 -12 7 -2 19 15 171 15 162 -1 -5 -8 -3 -8 8 0 8 6 48 11 90 12 75 0
76 0 73 -25 -1 -14 1 -22 4 -18 4 3 7 13 7 21 0 7 4 13 10 11 5 -1 9 -6 7 -10
-1 -5 2 -6 8 -2 6 3 8 11 5 16 -4 5 3 9 15 9 13 0 19 -4 14 -12 -5 -7 -3 -8 7
-2 24 14 51 16 43 2 -6 -10 -4 -10 7 -2 16 12 112 17 104 4 -2 -4 3 -14 13
-21 15 -13 16 -12 3 4 -7 9 -12 17 -10 18 51 10 52 10 38 -8 -13 -17 -13 -17
7 -1 29 25 42 22 38 -8 -1 -14 1 -23 4 -19 4 3 7 13 7 21 0 7 4 13 10 11 5 -1
9 -6 7 -10 -1 -5 2 -6 8 -2 6 3 8 11 5 16 -4 5 3 9 15 9 13 0 19 -4 14 -12 -5
-7 -3 -8 7 -2 24 14 51 16 43 2 -6 -10 -4 -10 7 -2 16 12 112 17 104 4 -2 -4
3 -14 13 -21 15 -13 16 -12 3 4 -7 9 -12 17 -10 18 51 10 52 10 38 -8 -13 -17
-13 -17 7 0 25 21 83 25 65 4 -8 -10 -7 -14 4 -14 7 0 13 5 12 11 -1 6 23 11
56 13 44 2 56 0 51 -10 -6 -9 -4 -9 7 -1 18 14 363 19 355 5 -4 -5 -2 -13 4
-16 6 -4 9 -1 8 7 -2 10 17 13 80 15 45 1 80 -2 77 -7 -3 -5 -1 -12 5 -15 6
-4 9 -1 8 7 -2 8 9 14 29 16 28 3 32 0 27 -15 -5 -16 -4 -16 5 -1 9 13 28 16
102 16 69 0 88 -2 82 -12 -4 -6 -1 -4 8 5 14 16 19 16 44 3 31 -16 48 -19 25
-4 -11 7 -4 10 25 9 22 0 76 3 120 7 44 4 92 7 107 7 15 0 25 3 23 7 -7 12 29
6 37 -5 5 -6 8 -3 8 7 0 11 5 15 15 12 8 -4 22 -1 30 6 8 6 19 9 24 6 5 -4 12
-2 16 3 3 6 12 8 20 4 8 -3 15 0 15 7 0 6 4 9 9 5 5 -3 16 2 24 10 19 18 31
20 21 3 -4 -7 3 -3 16 10 12 13 28 21 35 18 7 -2 16 2 19 11 4 9 14 13 26 10
11 -3 23 0 27 5 4 7 1 8 -8 3 -12 -8 -12 -6 0 8 7 9 20 17 27 17 8 0 14 5 14
11 0 5 4 8 9 4 5 -3 13 4 16 15 5 17 9 19 21 9 8 -6 17 -9 21 -5 3 3 1 6 -5 6
-7 0 -12 5 -12 11 0 6 7 9 15 5 8 -3 14 -2 14 2 -3 20 2 33 11 27 6 -3 10 -2
10 3 0 16 52 62 63 55 6 -3 7 -1 3 6 -8 13 18 44 29 33 4 -4 6 -2 4 3 -3 14
12 47 33 69 9 10 14 24 11 29 -4 6 0 8 9 4 12 -4 14 -1 11 14 -3 11 0 19 6 19
7 0 9 4 6 10 -3 5 -1 10 5 10 6 0 8 5 5 10 -3 6 -1 10 6 10 7 0 10 3 6 6 -3 4
0 19 9 35 8 16 15 32 17 36 1 5 5 7 8 6 3 -1 4 9 1 22 -2 14 0 25 4 25 5 0 10
15 10 34 1 19 5 43 9 53 8 19 13 70 19 164 1 30 6 62 11 69 6 9 4 11 -5 5 -9
-5 -10 -2 -5 14 9 29 9 2081 0 2104 -4 10 -3 17 5 17 6 0 8 5 4 11 -3 6 -8 41
-10 77 -3 66 -6 96 -19 177 -8 48 -45 176 -55 190 -4 6 -11 21 -15 34 -20 64
-127 208 -209 282 -51 46 -90 73 -166 116 -53 30 -200 87 -200 78 0 -2 -11 0
-25 5 -14 5 -46 12 -72 15 -27 4 -59 9 -73 12 -25 6 -2325 14 -2332 8z"/>
<path d="M590 980 c0 -5 5 -10 11 -10 5 0 7 5 4 10 -3 6 -8 10 -11 10 -2 0 -4
-4 -4 -10z"/>
<path d="M4465 880 c-3 -6 1 -7 9 -4 18 7 21 14 7 14 -6 0 -13 -4 -16 -10z"/>
<path d="M4355 760 c-3 -6 1 -7 9 -4 18 7 21 14 7 14 -6 0 -13 -4 -16 -10z"/>
<path d="M4330 719 c0 -5 5 -7 10 -4 6 3 10 8 10 11 0 2 -4 4 -10 4 -5 0 -10
-5 -10 -11z"/>
<path d="M820 686 c0 -2 8 -10 18 -17 15 -13 16 -12 3 4 -13 16 -21 21 -21 13z"/>
<path d="M4230 636 c7 -7 13 -7 20 0 6 6 3 10 -10 10 -13 0 -16 -4 -10 -10z"/>
<path d="M1135 520 c3 -5 8 -10 11 -10 2 0 4 5 4 10 0 6 -5 10 -11 10 -5 0 -7
-4 -4 -10z"/>
<path d="M3955 519 c-3 -4 2 -6 10 -5 21 3 28 13 10 13 -9 0 -18 -4 -20 -8z"/>
<path d="M1213 485 c0 -8 4 -12 9 -9 5 3 6 10 3 15 -9 13 -12 11 -12 -6z"/>
<path d="M3693 486 c0 -7 6 -13 14 -13 7 0 13 4 13 8 0 4 -6 9 -13 12 -8 3
-14 0 -14 -7z"/>
<path d="M1413 475 c0 -8 4 -12 9 -9 5 3 6 10 3 15 -9 13 -12 11 -12 -6z"/>
<path d="M1626 478 c3 -5 9 -7 12 -4 3 3 12 0 21 -6 13 -10 14 -10 4 2 -15 16
-46 23 -37 8z"/>
<path d="M1684 478 c-4 -7 -3 -8 5 -4 6 4 20 2 29 -6 15 -12 16 -11 3 5 -16
20 -27 22 -37 5z"/>
<path d="M1810 481 c0 -6 4 -12 8 -15 5 -3 9 1 9 9 0 8 -4 15 -9 15 -4 0 -8
-4 -8 -9z"/>
<path d="M1860 485 c0 -2 6 -8 13 -14 10 -8 14 -7 14 2 0 8 -6 14 -14 14 -7 0
-13 -1 -13 -2z"/>
<path d="M2081 476 c-9 -11 -9 -16 1 -22 7 -4 10 -4 6 1 -4 4 -3 14 3 22 6 7
9 13 6 13 -2 0 -10 -6 -16 -14z"/>
<path d="M2401 476 c-9 -11 -9 -16 1 -22 7 -4 10 -4 6 1 -4 4 -3 14 3 22 6 7
9 13 6 13 -2 0 -10 -6 -16 -14z"/>
<path d="M2644 478 c-4 -7 -3 -8 5 -4 6 4 20 2 29 -6 15 -12 16 -11 3 5 -16
20 -27 22 -37 5z"/>
<path d="M2820 485 c0 -2 6 -8 13 -14 10 -8 14 -7 14 2 0 8 -6 14 -14 14 -7 0
-13 -1 -13 -2z"/>
<path d="M2905 480 c-2 -3 7 -6 21 -6 13 0 24 3 24 7 0 9 -40 8 -45 -1z"/>
<path d="M2966 482 c-3 -5 1 -9 9 -9 8 0 15 4 15 9 0 4 -4 8 -9 8 -6 0 -12 -4
-15 -8z"/>
<path d="M3015 480 c3 -5 8 -10 11 -10 2 0 4 5 4 10 0 6 -5 10 -11 10 -5 0 -7
-4 -4 -10z"/>
<path d="M3040 486 c0 -2 7 -7 16 -10 8 -3 12 -2 9 4 -6 10 -25 14 -25 6z"/>
<path d="M3130 486 c0 -2 7 -7 16 -10 8 -3 12 -2 9 4 -6 10 -25 14 -25 6z"/>
<path d="M3175 481 c-3 -5 -2 -12 3 -15 5 -3 9 1 9 9 0 17 -3 19 -12 6z"/>
<path d="M3280 486 c0 -2 7 -9 15 -16 13 -11 14 -10 9 4 -5 14 -24 23 -24 12z"/>
<path d="M3375 480 c3 -5 8 -10 11 -10 2 0 4 5 4 10 0 6 -5 10 -11 10 -5 0 -7
-4 -4 -10z"/>
<path d="M3415 480 c3 -5 8 -10 11 -10 2 0 4 5 4 10 0 6 -5 10 -11 10 -5 0 -7
-4 -4 -10z"/>
<path d="M3455 480 c3 -5 8 -10 11 -10 2 0 4 5 4 10 0 6 -5 10 -11 10 -5 0 -7
-4 -4 -10z"/>
<path d="M3537 475 c-4 -8 -3 -16 1 -19 4 -3 9 4 9 15 2 23 -3 25 -10 4z"/>
<path d="M2015 471 c-3 -5 -2 -12 3 -15 5 -3 9 1 9 9 0 17 -3 19 -12 6z"/>
<path d="M2335 471 c-3 -5 -2 -12 3 -15 5 -3 9 1 9 9 0 17 -3 19 -12 6z"/>
<path d="M1546 458 c3 -5 10 -6 15 -3 13 9 11 12 -6 12 -8 0 -12 -4 -9 -9z"/>
<path d="M2770 459 c0 -5 5 -7 10 -4 6 3 10 8 10 11 0 2 -4 4 -10 4 -5 0 -10
-5 -10 -11z"/>
<path d="M3565 460 c-3 -6 1 -7 9 -4 18 7 21 14 7 14 -6 0 -13 -4 -16 -10z"/>
</g>
</svg>
